<?xml version="1.0" standalone="no"?>
<!DOCTYPE svg PUBLIC "-//W3C//DTD SVG 20010904//EN"
 "http://www.w3.org/TR/2001/REC-SVG-20010904/DTD/svg10.dtd">
<svg version="1.0" xmlns="http://www.w3.org/2000/svg"
 width="195.000000pt" height="129.000000pt" viewBox="0 0 195.000000 129.000000"
 preserveAspectRatio="xMidYMid meet">
<metadata>
Created by potrace 1.15, written by Peter Selinger 2001-2017
</metadata>
<g transform="translate(0.000000,129.000000) scale(0.100000,-0.100000)"
fill="#000000" stroke="none">
<path d="M1222 1276 c2 -8 39 -45 83 -83 97 -84 166 -167 210 -253 38 -75 75
-183 74 -214 0 -12 -8 6 -18 39 -44 152 -150 306 -284 411 -78 61 -141 84
-233 84 -104 0 -125 -23 -52 -56 160 -71 331 -229 422 -386 37 -63 28 -61 -13
3 -79 120 -202 227 -340 293 -110 53 -164 62 -235 42 -89 -26 -75 -42 82 -97
73 -26 166 -66 206 -89 88 -50 225 -167 281 -239 30 -40 45 -51 61 -48 19 3
25 -5 44 -67 11 -39 26 -108 33 -153 9 -69 15 -83 29 -83 10 0 18 7 18 15 0 8
6 15 14 15 8 0 21 9 29 20 13 19 14 19 43 -11 28 -30 29 -31 9 -45 -85 -60
-110 -82 -113 -97 -5 -24 10 -21 92 17 58 26 75 39 86 66 18 44 0 78 -58 105
-35 16 -42 24 -37 40 4 11 9 76 12 145 6 149 -8 222 -66 344 -60 129 -154 236
-242 276 -53 23 -142 28 -137 6z"/>
<path d="M785 958 c-42 -15 -85 -47 -85 -63 0 -16 27 -22 145 -30 202 -14 360
-75 528 -202 54 -42 77 -47 77 -19 0 20 -153 165 -217 206 -145 93 -351 142
-448 108z"/>
<path d="M832 795 c-36 -19 -52 -33 -50 -44 3 -13 23 -17 118 -22 122 -7 216
-26 310 -65 63 -25 176 -89 185 -104 9 -15 45 -12 45 4 0 21 -108 115 -182
159 -82 49 -197 85 -295 93 -71 5 -83 3 -131 -21z"/>
<path d="M108 722 l-58 -3 0 -335 0 -334 228 2 227 3 0 60 0 60 -147 3 -148 3
0 257 c0 141 -4 262 -8 268 -11 16 -31 19 -94 16z"/>
<path d="M524 697 c-3 -8 -4 -36 -2 -63 l3 -49 73 -3 73 -3 -3 63 -3 63 -68 3
c-51 2 -69 -1 -73 -11z"/>
<path d="M777 663 c-4 -3 -7 -37 -7 -74 l0 -68 -32 -3 -33 -3 0 -60 0 -60 33
-3 32 -3 0 -120 c0 -138 12 -178 62 -209 19 -11 51 -20 74 -20 40 0 131 25
148 41 12 11 -31 106 -51 113 -8 3 -23 1 -33 -4 -37 -20 -40 -13 -40 94 l0
105 48 3 47 3 3 63 3 62 -51 0 -50 0 0 53 c0 94 -3 97 -79 97 -37 0 -71 -3
-74 -7z"/>
<path d="M527 554 c-4 -4 -7 -119 -7 -256 l0 -248 75 0 75 0 -2 253 -3 252
-65 3 c-36 2 -69 0 -73 -4z"/>
<path d="M1185 516 c-36 -15 -90 -69 -113 -111 -12 -22 -17 -54 -17 -115 1
-125 37 -186 138 -230 84 -37 212 -22 281 33 l28 23 -26 52 c-14 29 -31 52
-38 52 -6 0 -36 -12 -66 -27 -52 -25 -57 -26 -95 -12 -22 8 -47 24 -55 37
l-14 22 138 0 c77 0 145 4 153 9 10 6 11 22 6 62 -13 100 -52 161 -127 200
-44 23 -147 25 -193 5z"/>
</g>
</svg>
